<?xml version="1.0" encoding="UTF-8"?>
<svg id="Layer_1" data-name="Layer 1" xmlns="http://www.w3.org/2000/svg" viewBox="0 0 161.01 161.01">
  <defs>
    <style>
      .cls-1, .cls-2 {
        fill: none;
      }

      .cls-1, .cls-2, .cls-3, .cls-4, .cls-5 {
        stroke-miterlimit: 10;
      }

      .cls-1, .cls-2, .cls-4, .cls-5 {
        stroke: #ef9f27;
      }

      .cls-1, .cls-2, .cls-5 {
        stroke-width: 8px;
      }

      .cls-2 {
        stroke-linecap: round;
      }

      .cls-3 {
        fill: #fffaf5;
        stroke: #fffaf5;
      }

      .cls-4, .cls-5 {
        fill: #fff;
      }
    </style>
  </defs>
  <rect class="cls-3" x=".5" y=".5" width="160.01" height="160.01"/>
  <path class="cls-2" d="M94.2,25.45c14.04-.04,28.89-.04,42.15,0"/>
  <path class="cls-2" d="M24.65,25.47c13.25-.04,28.1-.04,42.15,0"/>
  <line class="cls-5" x1="80.5" y1="137.81" x2="80.51" y2="33.76"/>
  <path class="cls-1" d="M66.8,25.94c0,1.97,1.03,3.85,2.51,5.14s3.38,2.04,5.31,2.43,3.91.45,5.88.5"/>
  <line class="cls-2" x1="65.51" y1="137.82" x2="95.51" y2="137.79"/>
  <path class="cls-1" d="M94.2,25.94c0,1.97-1.03,3.85-2.51,5.14s-3.38,2.04-5.31,2.43-3.91.45-5.88.5"/>
  <line class="cls-4" x1="66.38" y1="25.47" x2="67.3" y2="25.47"/>
  <line class="cls-4" x1="93.7" y1="25.45" x2="94.94" y2="25.45"/>
</svg>